<mxfile host="app.diagrams.net" modified="2022-02-14T12:35:19.639Z" agent="5.0 (Windows NT 10.0; Win64; x64) AppleWebKit/537.36 (KHTML, like Gecko) Chrome/98.0.4758.82 Safari/537.36" etag="IWwewb5Sd54zk2Kv9sLJ" version="16.5.6" type="github">
  <diagram id="wuFIx5t87PMCcMwBELVB" name="Page-1">
    <mxGraphModel dx="780" dy="419" grid="1" gridSize="10" guides="1" tooltips="1" connect="1" arrows="1" fold="1" page="1" pageScale="1" pageWidth="827" pageHeight="1169" math="0" shadow="0">
      <root>
        <mxCell id="0" />
        <mxCell id="1" parent="0" />
        <mxCell id="vVm90_ULy_EPaL6kVAdp-1" value="Legemiddel" style="rounded=0;whiteSpace=wrap;html=1;" vertex="1" parent="1">
          <mxGeometry x="330" y="60" width="120" height="60" as="geometry" />
        </mxCell>
        <mxCell id="vVm90_ULy_EPaL6kVAdp-2" value="Narkotisk" style="rounded=0;whiteSpace=wrap;html=1;" vertex="1" parent="1">
          <mxGeometry x="190" y="180" width="120" height="60" as="geometry" />
        </mxCell>
        <mxCell id="vVm90_ULy_EPaL6kVAdp-3" value="Vanedannende" style="rounded=0;whiteSpace=wrap;html=1;" vertex="1" parent="1">
          <mxGeometry x="330" y="180" width="120" height="60" as="geometry" />
        </mxCell>
        <mxCell id="vVm90_ULy_EPaL6kVAdp-4" value="Vanlig" style="rounded=0;whiteSpace=wrap;html=1;" vertex="1" parent="1">
          <mxGeometry x="470" y="180" width="120" height="60" as="geometry" />
        </mxCell>
        <mxCell id="vVm90_ULy_EPaL6kVAdp-5" value="" style="endArrow=classic;html=1;rounded=0;entryX=0.25;entryY=1;entryDx=0;entryDy=0;" edge="1" parent="1" target="vVm90_ULy_EPaL6kVAdp-1">
          <mxGeometry width="50" height="50" relative="1" as="geometry">
            <mxPoint x="250" y="180" as="sourcePoint" />
            <mxPoint x="300" y="130" as="targetPoint" />
          </mxGeometry>
        </mxCell>
        <mxCell id="vVm90_ULy_EPaL6kVAdp-6" value="" style="endArrow=classic;html=1;rounded=0;entryX=0.5;entryY=1;entryDx=0;entryDy=0;exitX=0.5;exitY=0;exitDx=0;exitDy=0;" edge="1" parent="1" source="vVm90_ULy_EPaL6kVAdp-3" target="vVm90_ULy_EPaL6kVAdp-1">
          <mxGeometry width="50" height="50" relative="1" as="geometry">
            <mxPoint x="386" y="180" as="sourcePoint" />
            <mxPoint x="490" y="120" as="targetPoint" />
          </mxGeometry>
        </mxCell>
        <mxCell id="vVm90_ULy_EPaL6kVAdp-7" value="" style="endArrow=classic;html=1;rounded=0;entryX=0.75;entryY=1;entryDx=0;entryDy=0;exitX=0.5;exitY=0;exitDx=0;exitDy=0;" edge="1" parent="1" target="vVm90_ULy_EPaL6kVAdp-1">
          <mxGeometry width="50" height="50" relative="1" as="geometry">
            <mxPoint x="529.71" y="180" as="sourcePoint" />
            <mxPoint x="529.71" y="120" as="targetPoint" />
          </mxGeometry>
        </mxCell>
      </root>
    </mxGraphModel>
  </diagram>
</mxfile>
